# xmcd
#
# Track frame offsets:
#	150
#	12031
#	28018
#	46946
#	59632
#	75280
#	89503
#	101235
#	117103
#	135869
#	148405
#	164052
#
# Disc length: 2378 seconds
#
# Revision: 1
# Processed by: cddbd v1.5.2PL0 Copyright (c) Steve Scherf et al.
# Submitted via: audiograbber 1.83.01
#
DISCID=9e09480c
DTITLE=VERN GOSDIN - CB20257
DYEAR=1900
DGENRE=KARAOKE
TTITLE0=VERN GOSDIN - SET 'EM UP JOE (WVOCAL)
TTITLE1=VERN GOSDIN - IF YOU'RE GONNA DO ME WRONG (WVOCAL)
TTITLE2=VERN GOSDIN - THAT JUST ABOUT DOES IT (WVOCAL)
TTITLE3=VERN GOSDIN - I CAN TELL BY THE WAY YOU DANCE (WVOCAL)
TTITLE4=VERN GOSDIN - GARDEN (WVOCAL)
TTITLE5=VERN GOSDIN - IS IT RAINING AT YOUR HOUSE (WVOCAL)
TTITLE6=VERN GOSDIN - SET 'EM UP JOE
TTITLE7=VERN GOSDIN - IF YOU'RE GONNA DO ME WRONG
TTITLE8=VERN GOSDIN - THAT JUST ABOUT DOES IT
TTITLE9=VERN GOSDIN - I CAN TELL BY THE WAY YOU DANCE
TTITLE10=VERN GOSDIN - GARDEN
TTITLE11=VERN GOSDIN - IS IT RAINING AT YOUR HOUSE
EXTD=
EXTT0=
EXTT1=
EXTT2=
EXTT3=
EXTT4=
EXTT5=
EXTT6=
EXTT7=
EXTT8=
EXTT9=
EXTT10=
EXTT11=
PLAYORDER=
